<svg width="92" height="62" fill="none" xmlns="http://www.w3.org/2000/svg"><path d="M43.297 39.051c0-1.177.208-2.302.648-3.35.415-1.046 1.063-2.014 1.866-2.904a8.787 8.787 0 012.721-1.884c1.011-.445 2.1-.654 3.24-.654 1.14 0 2.203.21 3.24.654 1.036.445 1.917 1.073 2.72 1.884a8.538 8.538 0 011.84 2.853 9.32 9.32 0 01.622 3.401 9.282 9.282 0 01-.622 3.376 8.538 8.538 0 01-1.84 2.853 7.983 7.983 0 01-2.72 1.884 8.43 8.43 0 01-3.24.654 8.06 8.06 0 01-3.24-.654c-1.01-.419-1.917-1.073-2.72-1.884a8.845 8.845 0 01-1.867-2.879 8.754 8.754 0 01-.648-3.35zm1.53-.026c0 2.068.673 3.821 2.02 5.26 1.349 1.44 2.981 2.146 4.925 2.146 1.918 0 3.55-.733 4.898-2.172 1.347-1.44 1.995-3.193 1.995-5.26 0-2.093-.674-3.847-1.995-5.26-1.348-1.439-2.98-2.146-4.898-2.146-1.944 0-3.576.707-4.924 2.146-1.348 1.44-2.021 3.193-2.021 5.286zM61.52 30.616h1.555l5.443 14.775c.103.287.181.47.285.6.103.13.207.183.31.183.13 0 .234-.079.364-.21.103-.13.207-.312.285-.573l5.443-14.8h1.555l-5.754 15.504c-.207.627-.467 1.07-.752 1.332-.285.26-.648.391-1.088.391-.441 0-.83-.13-1.115-.391-.285-.261-.544-.705-.752-1.332l-5.78-15.479zM92 47.792h-1.555l-5.443-14.774c-.104-.287-.181-.47-.285-.6-.104-.131-.207-.183-.311-.183-.13 0-.233.078-.363.209-.104.13-.207.313-.285.574l-5.443 14.8H76.76l5.754-15.505c.207-.627.466-1.07.752-1.331.285-.261.647-.392 1.088-.392.44 0 .83.13 1.115.392.285.26.544.704.751 1.331L92 47.793z" fill="#6D2080"/><path d="M4.203 36.72c-1.411 7.553 5.22 16.44 11.649 19.569 2.167 1.055 4.903 1.941 7.123 2.153 4.231.405 8.565-.883 12.04-2.672 14.743-8.283 13.061-30.541 12.79-32.504-1.176-8.675-5.808-20.51-11.164-21.134-5.248-.628-5.587 10.193-17.29 22.009C10.675 32.865 5.358 30.56 4.203 36.72z" fill="#6D2080"/><path opacity=".85" d="M7.036 45.788c.718 6.102 7.573 10.647 12.986 12.152 8.174 2.261 15.75-1.604 20.294-6.146 11.68-11.736 4.146-31.548 3.559-32.999-3.459-8.205-11.01-17.27-16.186-16.32-4.97.912-2.241 10.97-9.595 25.136C12.66 38.092 6.337 39.79 7.037 45.788z" fill="#00FF9E"/><path d="M18.122 36.801v10.892H16.92V37.272c0-2.15.565-3.844 1.655-5.045h0v-.001c1.089-1.225 2.61-1.842 4.529-1.842 1.147 0 2.188.282 3.05.818h0v.001c.887.536 1.626 1.355 2.268 2.468l.106.184.11-.182c.666-1.113 1.432-1.933 2.32-2.47.888-.537 1.878-.82 3.024-.82 1.918 0 3.414.618 4.53 1.844 1.115 1.227 1.68 2.895 1.68 5.045v10.421h-1.23V36.801c0-1.568-.448-2.857-1.357-3.827-.909-.997-2.086-1.48-3.545-1.48-1.458 0-2.662.483-3.571 1.48-.907.995-1.357 2.257-1.357 3.827v10.892h-1.204V36.801c0-1.568-.449-2.857-1.357-3.827-.91-.997-2.087-1.48-3.545-1.48-1.434 0-2.61.484-3.545 1.48h0c-.908.995-1.358 2.257-1.358 3.827z" fill="#fff" stroke="#fff" stroke-width=".25"/></svg>